<?xml version="1.0" encoding="UTF-8"?><svg id="Layer_1" xmlns="http://www.w3.org/2000/svg" viewBox="0 0 220.68 89.94"><defs><style>.cls-1{letter-spacing:.06em;}.cls-1,.cls-2{font-family:GrafolitaScript-Regular, 'Grafolita Script';font-size:79px;}.cls-1,.cls-2,.cls-3{isolation:isolate;}.cls-2{letter-spacing:.06em;}.cls-4{fill:#0f4d0f;}</style></defs><g class="cls-3"><g class="cls-3"><text class="cls-2" transform="translate(52.67 76.72)"><tspan x="0" y="0">lant</tspan></text></g></g><path class="cls-4" d="M186.99,76.76c2.53-7.47,3.78-13.55,4.44-17.75,0,0,1.1-7.01-1.35-10.75-.69-1.05-1.7-1.73-1.7-1.73-4.44-3.33-5.27,3.05-5.27,3.05.56-.58,1.36-1.21,2.22-1.11,1,.12,1.39,1.16,2.22,1.11.42-.02,1.01-.34,1.66-1.66"/><path d="M186.12,76.47c.66-4.77,1.82-9.78,2.76-14.47.79-4.13,1.76-9.34-.36-13.1-.34-.52-.87-1.02-1.38-1.39-1.11-.73-1.44-.91-2.29.25-.35.54-.66,1.28-.85,1.95l-1.57-.75c1.18-.9,3.02-1.59,4.23-.29.51.46.8.67,1.17.38.35-.3.58-.89.54-1.52l1.64.81c-.6.48-1.02,1.03-1.72,1.45-.35.2-.85.31-1.27.15-.81-.31-1.4-1.26-2.22-.82-.41.2-.78.62-1.04,1.12l-1.8,2.32c.19-1.72.11-4.23.85-5.84.6-1.73,2.64-2.97,4.46-2.35,7.51,2.6,6.74,12.16,5.51,18.41-.94,4.98-2.45,9.86-4.93,14.3l-1.74-.59h0v-.02h.01Z"/><path class="cls-4" d="M191.64,47.47c-1.36-1.07-.19-7.56,3.33-8.87,3.5-1.3,6.6,2.22,11.65,2.22,3.33,0,3.88-1.11,3.88-1.11-.19,1.27-1.08,6.41-4.99,8.87-1.05.66-2.53,1.59-3.88,1.11-1.02-.37-1.49-1.38-3.32-1.96-.1-.03-.47-.15-1.12-.26-3.2-.52-4.78.61-5.55,0h0Z"/><path d="M191.41,47.77c-.93-.98-.81-2.37-.91-3.61-.08-2.64.51-5.59,3.27-6.98,5.14-2.49,8.7,3.53,13.66,3.19.9-.03,2.12-.15,2.7-.85l.8.25c-.23,2.14-.44,4.37-1.36,6.6-1.35,3.56-6.57,7.48-9.99,4.09-1.49-1.98-3.89-2.74-6.32-2.46-.62.03-1.25.22-1.84-.23h0ZM191.88,47.17c.19.16.74.07,1.23-.06,1.66-.41,3.27-.76,5.07-.61,1.15-.03,2.66.65,3.55,1.23.44.26.53.2.61.17,3.67-1.21,6.93-4.25,7.74-8.26l.8.25c-.26.38-.49.49-.83.68-1.92.81-4.01.8-6.07.66-3.15-.13-5.98-1.95-8.59-.85-1.76,1.01-4.81,4.54-3.51,6.78h0Z"/><g class="cls-3"><g class="cls-3"><text class="cls-1" transform="translate(0 74.48)"><tspan x="0" y="0">P</tspan></text></g></g></svg>