<?xml version="1.0" encoding="UTF-8"?><svg id="Layer_1" xmlns="http://www.w3.org/2000/svg" viewBox="0 0 288 288"><defs><style>.cls-1{stroke-width:.42px;}.cls-1,.cls-2,.cls-3,.cls-4,.cls-5,.cls-6{fill:none;stroke:#000;stroke-miterlimit:10;}.cls-2{stroke-width:.66px;}.cls-3{stroke-width:.8px;}.cls-4{stroke-width:.89px;}.cls-5{stroke-width:.75px;}</style></defs><path class="cls-6" d="M212.5,135.5c.83,12.78,10.55,16.59,8,24-2.8,8.16-15.05,4.93-22,15-6.86,9.94.71,19.38-6,26-6.82,6.74-16.56-1.15-27,6-9.03,6.19-6.46,15.31-14,18-8.26,2.94-12.94-7.43-26-7-11.78.39-15.37,9.08-22.29,6.58-8.17-2.96-4.97-15.61-14.71-21.58-8.99-5.51-17.87,1.48-22.82-4.01-5.02-5.58,3.25-14.02-1.18-22.99-5.54-11.2-23.3-7.91-26-17-2.27-7.64,9.48-12.65,8-23-1.42-9.93-13.12-11.41-13-19,.14-8.34,14.31-8.55,23-22,8.98-13.9.59-24.12,9-32,8.78-8.23,19.27,1.63,37-6,14.94-6.43,15.58-16.93,26-17,9.88-.07,10.74,9.35,26,15,15.23,5.64,20.86-1.33,30,5,9.5,6.58,4.67,14.97,16,29,9.61,11.89,16.9,10.59,19,19,2.57,10.32-7.88,14.41-7,28Z"/><path class="cls-4" d="M204.22,133.55c.66,10.63,9.7,13.7,7.88,20.16-2.09,7.4-14.38,4.87-20.28,14.39-5.48,8.85,1.56,16.8-3.92,22.65-5.94,6.34-15.92-1.16-25.31,5.69-7.67,5.6-5.15,13.63-11.65,16.11-7.31,2.79-11.87-6.83-23.78-6.37-10.44.4-13.61,8.05-19.75,5.83-7.23-2.62-4.4-13.83-13.03-19.11-7.96-4.88-15.83,1.31-20.21-3.55-4.42-4.91,2.73-12.14-1.05-20.36-4.86-10.57-21.16-8.37-23.11-16.69-1.54-6.57,8.12-10.14,7.16-18.74-.94-8.44-10.77-9.81-10.72-16.5.06-7.48,12.37-7.88,19.58-19.82,7.24-12-.07-20.04,6.78-27.11,7.61-7.86,17.83.85,33.97-6.55,13.58-6.23,14.28-16.04,23.48-15.95,8.63.09,9.21,8.75,22.59,14.17,13.33,5.4,18.65-.8,27.02,5.13,8.05,5.7,4.1,12.12,13.73,24.99,8.88,11.87,16,11.43,17.25,19.29,1.41,8.87-7.28,11.71-6.62,22.34Z"/><path class="cls-3" d="M197.03,134.16c.59,9.62,8.78,12.4,7.13,18.24-1.89,6.69-13.01,4.4-18.35,13.02-4.96,8.01,1.41,15.2-3.55,20.5-5.37,5.74-14.41-1.05-22.91,5.15-6.94,5.07-4.66,12.34-10.54,14.58-6.61,2.52-10.74-6.18-21.52-5.76-9.45.37-12.32,7.28-17.87,5.27-6.55-2.37-3.98-12.51-11.79-17.3-7.2-4.41-14.32,1.19-18.29-3.22-4-4.44,2.47-10.99-.95-18.43-4.4-9.56-19.15-7.57-20.91-15.1-1.39-5.95,7.35-9.18,6.48-16.96-.85-7.64-9.75-8.88-9.7-14.93.06-6.76,11.19-7.13,17.72-17.94,6.55-10.86-.07-18.13,6.13-24.53,6.89-7.11,16.14.77,30.74-5.93,12.29-5.64,12.93-14.51,21.24-14.43,7.81.08,8.33,7.92,20.44,12.83,12.06,4.89,16.88-.73,24.45,4.64,7.28,5.16,3.71,10.97,12.42,22.61,8.04,10.74,14.48,10.34,15.61,17.46,1.28,8.03-6.59,10.59-5.99,20.22Z"/><path class="cls-2" d="M185.89,131.92c.49,7.87,7.18,10.14,5.83,14.92-1.55,5.48-10.64,3.6-15.01,10.65-4.06,6.55,1.16,12.43-2.9,16.76-4.39,4.69-11.78-.86-18.73,4.21-5.68,4.15-3.81,10.09-8.62,11.93-5.41,2.06-8.78-5.06-17.6-4.71-7.73.3-10.07,5.96-14.61,4.31-5.35-1.94-3.26-10.23-9.64-14.15-5.89-3.61-11.71.97-14.96-2.63-3.27-3.63,2.02-8.98-.78-15.07-3.6-7.82-15.66-6.19-17.1-12.35-1.14-4.86,6.01-7.51,5.3-13.87-.69-6.25-7.97-7.26-7.93-12.21.05-5.53,9.15-5.83,14.49-14.67,5.36-8.88-.05-14.83,5.01-20.06,5.63-5.82,13.2.63,25.14-4.85,10.05-4.61,10.57-11.87,17.37-11.8,6.39.07,6.81,6.47,16.72,10.49,9.87,4,13.8-.59,20,3.8,5.95,4.22,3.04,8.97,10.16,18.49,6.57,8.79,11.84,8.46,12.77,14.28,1.05,6.56-5.39,8.66-4.9,16.53Z"/><path class="cls-6" d="M173.67,128.61c.38,6.1,5.56,7.87,4.51,11.58-1.2,4.25-8.24,2.8-11.62,8.26-3.14,5.08.89,9.65-2.25,13.01-3.4,3.64-9.12-.67-14.51,3.27-4.4,3.22-2.95,7.83-6.68,9.26-4.19,1.6-6.8-3.92-13.63-3.66-5.98.23-7.8,4.62-11.32,3.35-4.15-1.51-2.52-7.94-7.47-10.98-4.56-2.8-9.07.75-11.58-2.04-2.53-2.82,1.57-6.97-.6-11.7-2.79-6.07-12.13-4.81-13.24-9.59-.88-3.77,4.65-5.83,4.1-10.77-.54-4.85-6.17-5.63-6.14-9.48.04-4.29,7.09-4.53,11.22-11.38,4.15-6.89-.04-11.51,3.88-15.57,4.36-4.51,10.22.49,19.47-3.76,7.78-3.58,8.19-9.21,13.45-9.16,4.95.05,5.28,5.02,12.95,8.14,7.64,3.1,10.69-.46,15.49,2.95,4.61,3.28,2.35,6.96,7.87,14.35,5.09,6.82,9.17,6.57,9.89,11.08.81,5.09-4.17,6.72-3.8,12.83Z"/><path class="cls-6" d="M164.9,126.9c.29,4.79,4.36,6.17,3.54,9.08-.94,3.33-6.46,2.19-9.11,6.48-2.46,3.98.7,7.57-1.76,10.2-2.67,2.86-7.15-.52-11.37,2.56-3.45,2.52-2.31,6.14-5.24,7.26-3.28,1.26-5.33-3.08-10.69-2.87-4.69.18-6.12,3.62-8.87,2.62-3.25-1.18-1.98-6.23-5.86-8.61-3.58-2.2-7.11.59-9.08-1.6-1.99-2.21,1.23-5.47-.47-9.17-2.18-4.76-9.51-3.77-10.38-7.52-.69-2.96,3.65-4.57,3.22-8.44-.42-3.8-4.84-4.42-4.82-7.43.03-3.37,5.56-3.55,8.8-8.93,3.25-5.4-.03-9.02,3.04-12.21,3.42-3.54,8.01.38,15.27-2.95,6.1-2.81,6.42-7.22,10.55-7.18,3.88.04,4.14,3.94,10.15,6.38,5.99,2.43,8.38-.36,12.14,2.31,3.62,2.57,1.84,5.46,6.17,11.25,3.99,5.35,7.19,5.15,7.75,8.69.64,3.99-3.27,5.27-2.98,10.06Z"/><path class="cls-6" d="M151.22,125.81c.18,3.18,2.59,4.09,2.1,6.02-.56,2.21-3.84,1.45-5.41,4.3-1.46,2.64.42,5.02-1.05,6.77-1.58,1.89-4.25-.35-6.75,1.7-2.05,1.67-1.37,4.07-3.11,4.82-1.95.83-3.17-2.04-6.35-1.9-2.79.12-3.63,2.41-5.27,1.74-1.93-.78-1.17-4.13-3.48-5.71-2.12-1.46-4.22.39-5.39-1.06-1.18-1.47.73-3.63-.28-6.09-1.3-3.16-5.65-2.5-6.17-4.99-.41-1.96,2.17-3.03,1.91-5.6-.25-2.52-2.88-2.93-2.86-4.93.02-2.23,3.3-2.35,5.22-5.92,1.93-3.58-.02-5.99,1.81-8.1,2.03-2.35,4.76.25,9.07-1.96,3.62-1.86,3.81-4.79,6.26-4.77,2.3.03,2.46,2.61,6.03,4.24,3.56,1.61,4.98-.24,7.21,1.53,2.15,1.7,1.09,3.62,3.66,7.47,2.37,3.55,4.27,3.42,4.6,5.77.38,2.65-1.94,3.5-1.77,6.68Z"/><path class="cls-5" d="M139.58,124.14c.08,1.46,1.19,1.88.96,2.76-.26,1.01-1.76.67-2.48,1.97-.67,1.21.19,2.3-.48,3.1-.73.87-1.95-.16-3.1.78-.94.77-.63,1.87-1.42,2.21-.89.38-1.45-.94-2.91-.87-1.28.06-1.66,1.1-2.41.8-.88-.36-.54-1.89-1.59-2.62-.97-.67-1.94.18-2.47-.49-.54-.67.33-1.66-.13-2.79-.59-1.45-2.59-1.15-2.83-2.29-.19-.9.99-1.39.88-2.57-.11-1.16-1.32-1.34-1.31-2.26,0-1.02,1.51-1.08,2.39-2.71.89-1.64,0-2.74.83-3.71.93-1.08,2.18.12,4.15-.9,1.66-.85,1.75-2.2,2.87-2.18,1.06.01,1.13,1.2,2.76,1.94,1.63.74,2.28-.11,3.3.7.98.78.5,1.66,1.68,3.42,1.09,1.63,1.96,1.57,2.11,2.64.17,1.21-.89,1.6-.81,3.06Z"/><path class="cls-1" d="M135.95,123.59c.04.81.66,1.04.54,1.54-.14.56-.98.37-1.38,1.1-.37.67.11,1.28-.27,1.73-.4.48-1.08-.09-1.72.43-.52.43-.35,1.04-.79,1.23-.5.21-.81-.52-1.62-.49-.71.03-.93.61-1.34.44-.49-.2-.3-1.05-.89-1.46-.54-.37-1.08.1-1.38-.27-.3-.37.19-.93-.07-1.55-.33-.81-1.44-.64-1.57-1.27-.1-.5.55-.77.49-1.43-.06-.64-.73-.75-.73-1.26,0-.57.84-.6,1.33-1.51.49-.91,0-1.53.46-2.07.52-.6,1.21.06,2.31-.5.93-.48.97-1.22,1.6-1.22.59,0,.63.67,1.54,1.08.91.41,1.27-.06,1.84.39.55.43.28.92.93,1.91.6.91,1.09.87,1.18,1.47.1.68-.5.89-.45,1.7Z"/><path d="M133.94,123.02c.03.49.4.63.32.93-.09.34-.59.22-.83.66-.22.41.06.77-.16,1.04-.24.29-.65-.05-1.04.26-.31.26-.21.63-.48.74-.3.13-.49-.31-.98-.29-.43.02-.56.37-.81.27-.3-.12-.18-.64-.53-.88-.33-.22-.65.06-.83-.16-.18-.23.11-.56-.04-.94-.2-.49-.87-.38-.95-.77-.06-.3.33-.47.29-.86-.04-.39-.44-.45-.44-.76,0-.34.51-.36.8-.91.3-.55,0-.92.28-1.25.31-.36.73.04,1.39-.3.56-.29.59-.74.96-.73.35,0,.38.4.93.65.55.25.77-.04,1.11.24.33.26.17.56.56,1.15.36.55.66.53.71.89.06.41-.3.54-.27,1.03Z"/><polyline class="cls-6" points="128 39 131 123 184 60"/><line class="cls-6" x1="219.5" y1="107.5" x2="130.5" y2="123.5"/><line class="cls-6" x1="64.5" y1="62.5" x2="131" y2="123"/><line class="cls-6" x1="33.5" y1="116.5" x2="129.59" y2="123.03"/><line class="cls-6" x1="38.5" y1="158.5" x2="132.96" y2="123.01"/><path class="cls-6" d="M103.5,223.5s27.37-103.16,27.43-101.83l-64.43,76.83"/><line class="cls-6" x1="151.5" y1="224.5" x2="131.61" y2="124.7"/><polyline class="cls-6" points="220.5 159.5 130.93 122.67 193.5 201.5"/></svg>