<?xml version="1.0" encoding="UTF-8"?><svg id="Layer_1" xmlns="http://www.w3.org/2000/svg" viewBox="0 0 288 288"><defs><style>.cls-1{fill:#940078;}</style></defs><path d="M144,111.89c12.96-20.99,32.87-33.16,50.72-30.19,2.45.41,12.01,2.09,19,9.96,11.1,12.5,7.77,31.02,6,40.85-8.38,46.59-64.79,80.78-76.22,87.49.17-36.04.33-72.07.5-108.11Z"/><path class="cls-1" d="M144,112c-3.78-6.42-13.91-21.6-32-28-4.54-1.61-11.28-3.89-19.73-2.2-8.54,1.71-14.51,6.61-17.39,9.7-11.84,12.7-7.78,33.66-5.88,43.5,9.06,46.79,63.15,78.35,75,85v-108Z"/></svg>